<svg width="128" height="29" viewBox="0 0 128 29" fill="none" xmlns="http://www.w3.org/2000/svg">
<g clip-path="url(#clip0_1_3)">
<path d="M39.9725 4.4825C39.738 3.61602 39.2807 2.82609 38.6459 2.19139C38.0112 1.55669 37.2212 1.09938 36.3547 0.865C33.1825 0 20.4165 0 20.4165 0C20.4165 0 7.64997 0.02625 4.47822 0.89125C3.61178 1.12567 2.82187 1.583 2.18717 2.2177C1.55247 2.85239 1.09514 3.6423 0.860723 4.50875C-0.0987775 10.145 -0.471027 18.7327 0.886973 24.1432C1.12139 25.0097 1.57872 25.7996 2.21342 26.4343C2.84812 27.069 3.63803 27.5263 4.50447 27.7607C7.67647 28.6257 20.4427 28.6257 20.4427 28.6257C20.4427 28.6257 33.209 28.6257 36.381 27.7607C37.2474 27.5263 38.0373 27.069 38.672 26.4343C39.3067 25.7996 39.7641 25.0097 39.9985 24.1432C41.0102 18.4992 41.3222 9.91675 39.9722 4.48275" fill="#FF0000"/>
<path d="M16.3532 20.447L26.9437 14.313L16.3532 8.17875V20.447Z" fill="white"/>
<path d="M122.809 8.31C124.198 8.31 125.247 8.572 125.981 9.07C126.715 9.56817 127.239 10.3547 127.554 11.4295C127.869 12.5043 127.999 13.972 127.999 15.8595V18.9268H121.262V19.8703L121.368 22.4655C121.446 23.0422 121.577 23.4617 121.787 23.7237C121.997 23.986 122.337 24.117 122.783 24.117C123.386 24.117 123.805 23.8813 124.015 23.4095C124.251 22.9375 124.356 22.151 124.382 21.0763L127.868 21.286C127.895 21.4432 127.895 21.653 127.895 21.915C127.895 23.5665 127.449 24.7987 126.532 25.6112C125.614 26.4237 124.356 26.8433 122.704 26.8433C120.712 26.8433 119.323 26.2143 118.536 24.9823C117.75 23.75 117.331 21.81 117.331 19.215V16.043C117.42 11.5868 118.203 8.323 122.809 8.31ZM74.3393 8.65075V21.784C74.3393 22.5705 74.4178 23.1473 74.6013 23.488C74.9735 24.2168 75.9383 24.0305 76.4625 23.6715C76.7651 23.4668 77.009 23.1868 77.1703 22.859V8.6505H81.181V26.5548H78.0353L77.6945 24.3528H77.616C76.751 26.0043 75.4663 26.843 73.7625 26.843C71.14 26.8365 70.4983 24.947 70.3455 23.028L70.3355 22.8927C70.3166 22.6021 70.3055 22.311 70.3023 22.0198V8.65075H74.3393ZM95.0223 8.65075V21.784C95.0223 22.5705 95.1008 23.1473 95.2843 23.488C95.6568 24.2168 96.6213 24.0305 97.1455 23.6715C97.4481 23.4668 97.692 23.1868 97.8533 22.859V8.6505H101.864V26.5548H98.7183L98.3775 24.3528H98.299C97.434 26.0043 96.1493 26.843 94.4455 26.843C91.823 26.8365 91.1813 24.947 91.0285 23.028L91.0185 22.8927C90.9996 22.6021 90.9885 22.311 90.9853 22.0198V8.65075H95.0223ZM62.7 8.31C64.0108 8.31 65.0855 8.572 65.872 9.1225C66.6583 9.673 67.2613 10.512 67.6283 11.6653C67.9953 12.8188 68.1788 14.3653 68.1788 16.279V18.874C68.1788 20.7878 67.9953 22.3083 67.6283 23.4615C67.2613 24.6153 66.6845 25.454 65.872 26.0045C65.0595 26.5287 63.9583 26.817 62.5953 26.817C61.1795 26.8432 60.0785 26.555 59.266 26.0308C58.4535 25.4803 57.8765 24.6413 57.536 23.488C57.195 22.3345 57.0378 20.814 57.0378 18.9005V16.305C57.0378 14.3913 57.2213 12.8185 57.6145 11.665C58.0078 10.4855 58.6105 9.6465 59.4495 9.1225C60.2883 8.598 61.363 8.30975 62.7 8.30975M108.156 1.12725V10.5643H108.182C108.549 9.88275 109.021 9.33225 109.676 8.91275C110.288 8.50139 111.009 8.28235 111.747 8.28375C112.717 8.28375 113.451 8.54575 114.001 9.04375C114.552 9.56825 114.945 10.3808 115.181 11.508C115.41 12.6 115.54 14.1103 115.548 16.0148L115.548 16.2005V19.0315C115.548 21.679 115.207 23.6452 114.578 24.9035C113.923 26.1617 112.926 26.791 111.563 26.791C110.803 26.791 110.122 26.6075 109.493 26.2668C108.936 25.9424 108.475 25.4775 108.155 24.9188L108.103 24.8248H108.025L107.605 26.5287H104.276V1.1275L108.156 1.12725ZM92.1123 2.04475V5.295H88.1278V26.5548H84.1958V5.29525H80.185V2.045L92.1123 2.04475ZM48.885 2.04475L48.8875 2.05475C48.9258 2.225 49.4558 4.58125 50.0388 7.3265L50.0848 7.544L50.1543 7.87275L50.2008 8.0935L50.224 8.20425L50.2705 8.42625L50.2938 8.5375L50.34 8.76025L50.4075 9.086C50.8013 10.987 51.177 12.8935 51.4018 14.2605H51.5068C51.722 13.0343 52.0348 11.465 52.3683 9.86275L52.4558 9.44425C52.4996 9.23458 52.5438 9.02525 52.5883 8.81625L52.6568 8.492C53.1096 6.36871 53.576 4.24833 54.056 2.131L54.0635 2.09725L54.0755 2.04475H58.0863L53.4463 18.586V26.5287H49.488V18.612H49.4618L44.8743 2.0445L48.885 2.04475ZM62.6213 11.0885C62.0708 11.0885 61.7038 11.377 61.468 11.98C61.2323 12.583 61.1273 13.5003 61.1273 14.785V20.3685C61.1273 21.6792 61.232 22.649 61.4418 23.226C61.6516 23.8027 62.0448 24.091 62.6213 24.091C63.1718 24.091 63.565 23.8027 63.801 23.226C64.037 22.649 64.1418 21.6792 64.1418 20.3685V14.7848C64.1418 13.5003 64.0368 12.5565 63.801 11.9798C63.565 11.377 63.1718 11.0885 62.6213 11.0885ZM108.863 11.613C108.544 11.908 108.317 12.2718 108.181 12.7265L108.156 12.8188V22.9897C108.481 23.5402 108.942 23.9073 109.755 23.9335C110.174 23.9335 110.515 23.7763 110.777 23.4618C111.039 23.1473 111.222 22.6229 111.327 21.8888C111.428 21.1843 111.48 20.2139 111.484 18.9778V16.4888C111.484 15.0733 111.432 13.9985 111.354 13.2383C111.249 12.478 111.118 11.9275 110.882 11.613C110.426 10.9575 109.44 10.9655 108.863 11.613ZM122.731 11.01C122.285 11.0362 121.97 11.1673 121.787 11.4033C121.577 11.6653 121.446 12.0585 121.368 12.6353C121.29 13.2003 121.264 15.1753 121.262 15.2543V16.5413H124.199V15.4063V15.428C124.197 15.8248 124.189 15.1978 124.171 14.428L124.168 14.3245C124.151 13.648 124.128 12.8938 124.094 12.6353C124.015 12.0323 123.884 11.6128 123.674 11.377C123.465 11.141 123.15 11.01 122.73 11.01" fill="#282828"/>
</g>
<defs>
<clipPath id="clip0_1_3">
<rect width="128" height="29" fill="white"/>
</clipPath>
</defs>
</svg>
